<svg width="1243" height="1200" viewBox="0 0 1243 1200" fill="none" xmlns="http://www.w3.org/2000/svg">
<g filter="url(#filter0_f)">
<ellipse cx="653.5" cy="719.5" rx="413.5" ry="419.5" fill="url(#paint0_linear)"/>
</g>
<g opacity="0.4" filter="url(#filter1_f)">
<ellipse cx="635.22" cy="719.493" rx="395.382" ry="383.986" fill="url(#paint1_linear)"/>
</g>
<g opacity="0.3" filter="url(#filter2_f)">
<path d="M615.925 -29C591.618 330.929 719.417 576.873 747.039 231.411C932.292 345.834 876.375 687.231 1017 554.172C963.936 1127.36 361.554 1082.22 185.545 717.787C176.287 703.213 171.536 686.309 167 673.834C172.498 688.956 178.699 703.613 185.545 717.787C194.664 732.143 208.155 744.238 230.12 747.615C285.451 756.122 178.763 462.299 249.342 401.618C387.305 570.297 387.305 135.401 615.925 -29Z" fill="url(#paint2_linear)"/>
</g>
<g opacity="0.2" filter="url(#filter3_f)">
<path d="M451.612 117.83C416.753 344.886 606.593 251.331 594.662 -90C704.222 5.69541 757.598 174.455 811.878 238.284C844.707 276.888 955.809 237.955 912.675 93.5624C1024.74 233.621 949.368 439.123 1058.91 319.496C1069.81 1196.75 138.056 1138.8 301.17 286.252C340.281 523.94 326.102 208.722 451.612 117.83Z" fill="url(#paint3_radial)"/>
</g>
<g filter="url(#filter4_f)">
<path d="M595.08 135C684.235 165.596 747.185 386.46 797.902 255.85C900.596 364.547 868.532 574.524 958.109 489.73C1140.98 1122.1 110.472 1155.97 368.818 402.519C408.138 742.383 403.516 367.511 508.1 304.742C523.03 489.73 684.008 320.241 595.08 135Z" fill="url(#paint4_linear)"/>
</g>
<g opacity="0.6" filter="url(#filter5_f)">
<ellipse cx="638.655" cy="947.344" rx="270.193" ry="47.9851" fill="url(#paint5_linear)"/>
</g>
<g filter="url(#filter6_i)">
<path d="M611.255 404.874C610.339 438.208 578.516 463.483 562.719 471.954C610.339 486.072 704.984 505.838 702.603 471.954C699.627 429.6 687.035 376.943 649.947 333.673C618.955 297.517 552.188 287.427 509.376 318.105C475.126 342.647 474.348 394.724 478.24 417.695L544.633 398.006C531.354 382.438 537.078 348.096 562.719 344.662C588.361 341.228 612.4 363.206 611.255 404.874Z" fill="url(#paint6_radial)"/>
</g>
<g opacity="0.9" filter="url(#filter7_f)">
<path d="M672.383 453.639C673.909 437.995 672.383 396.862 654.067 357.483C668.109 375.875 691.431 420.855 672.383 453.639Z" fill="#E33F08"/>
</g>
<g opacity="0.4" filter="url(#filter8_f)">
<path d="M610.723 411.093C611.016 409.053 611.197 406.979 611.255 404.873C612.4 363.206 588.361 341.227 562.719 344.661C537.078 348.095 531.354 382.437 544.633 398.005L515.826 406.547C513.564 385.996 515.868 353.407 538.68 339.625C571.648 319.707 610.568 340.083 616.292 377.629C618.205 390.181 615.441 401.543 610.723 411.093Z" fill="url(#paint7_linear)"/>
</g>
<g opacity="0.5" filter="url(#filter9_f)">
<path d="M661.28 348.215C670.292 371.613 679.53 403.344 677.42 427.082C673.756 468.291 647.199 445.168 643.536 416.092C643.356 414.666 643.176 413.169 642.987 411.609C639.337 381.362 632.855 327.662 576.685 317.647C517.618 307.116 500.447 367.557 500.447 382.209C500.447 396.861 508.231 398.235 510.749 387.704C510.954 386.848 511.183 385.754 511.452 384.466C514.499 369.893 522.741 330.468 559.972 330.468C600.495 330.468 616.521 359.544 624.534 382.209C631.698 402.473 630.078 435.548 591.857 448.546C581.966 459.676 570.432 467.818 562.719 471.954C610.339 486.073 704.984 505.838 702.603 471.954C699.953 434.243 689.68 388.364 661.28 348.215Z" fill="url(#paint8_linear)"/>
</g>
<g opacity="0.6" filter="url(#filter10_f)">
<path d="M630.716 375.112C622.108 340.129 591.491 327.339 578.975 324.973C669.865 335.504 644.682 458.904 634.15 475.617C623.619 492.33 597.748 495.993 608.509 475.617C619.269 455.241 641.476 418.84 630.716 375.112Z" fill="#E33F08"/>
</g>
<g filter="url(#filter11_d)">
<mask id="mask0" mask-type="alpha" maskUnits="userSpaceOnUse" x="320" y="466" width="650" height="471">
<path d="M758.224 936.707H535.907C501.374 936.707 484.107 936.707 471.046 934.748C372.922 920.028 306.043 827.563 322.782 729.764C325.011 716.745 330.416 700.347 341.227 667.55L341.227 667.549L341.227 667.549C349.842 641.415 354.15 628.348 359.204 616.942C396.048 533.799 474.742 476.88 565.24 467.918C577.656 466.688 591.414 466.688 618.932 466.688H674.672C701.671 466.688 715.17 466.688 727.242 467.85C822.844 477.052 904.956 539.677 939.114 629.442C943.427 640.776 946.998 653.795 954.138 679.832L954.138 679.834C962.283 709.533 966.355 724.382 967.939 736.281C980.809 833.009 913 921.918 816.312 935.087C804.419 936.707 789.02 936.707 758.224 936.707Z" fill="#FF7F0A"/>
</mask>
<g mask="url(#mask0)">
<g filter="url(#filter12_i)">
<path d="M758.224 936.707H535.907C501.374 936.707 484.107 936.707 471.046 934.748C372.922 920.028 306.043 827.563 322.782 729.764C325.011 716.745 330.416 700.347 341.227 667.55L341.227 667.549L341.227 667.549C349.842 641.415 354.15 628.348 359.204 616.942C396.048 533.799 474.742 476.88 565.24 467.918C577.656 466.688 591.414 466.688 618.932 466.688H674.672C701.671 466.688 715.17 466.688 727.242 467.85C822.844 477.052 904.956 539.677 939.114 629.442C943.427 640.776 946.998 653.795 954.138 679.832L954.138 679.834C962.283 709.533 966.355 724.382 967.939 736.281C980.809 833.009 913 921.918 816.312 935.087C804.419 936.707 789.02 936.707 758.224 936.707Z" fill="url(#paint9_radial)"/>
</g>
<g filter="url(#filter13_ddi)">
<path d="M478.239 565.142C451.072 634.234 434.121 715.755 453.403 809.881C462.961 856.541 467.741 879.872 495.301 905.437C498.196 908.123 503.611 912.541 506.824 914.839C537.4 936.707 569.937 936.707 638.141 936.707C703.216 936.707 740.056 936.707 770.632 914.839C773.844 912.541 779.259 908.123 782.155 905.437C809.715 879.872 814.494 856.541 824.053 809.881C843.335 715.755 826.383 634.234 799.216 565.142C793.564 550.765 790.737 543.577 783.714 532.415C765.15 502.913 725.093 475.621 690.844 469.14C677.887 466.688 661.77 466.688 638.141 466.688C611.383 466.688 599.568 466.688 586.611 469.14C552.362 475.621 512.305 502.913 493.741 532.415C486.718 543.577 483.892 550.765 478.239 565.142Z" fill="url(#paint10_radial)"/>
</g>
<g filter="url(#filter14_f)">
<ellipse cx="628.091" cy="570.874" rx="223.046" ry="80.4116" transform="rotate(1.0527 628.091 570.874)" fill="url(#paint11_linear)"/>
</g>
<g filter="url(#filter15_f)">
<ellipse cx="570.805" cy="592.953" rx="120.19" ry="41.6675" transform="rotate(-71.0877 570.805 592.953)" fill="url(#paint12_linear)"/>
</g>
<g opacity="0.8" filter="url(#filter16_f)">
<path d="M511.86 930.619C335.496 898.016 333.963 742.034 335.496 674.568L255.707 728.461L274.562 940.2L511.86 1032.18C572.181 1016.21 660.343 958.067 511.86 930.619Z" fill="#FFE600"/>
</g>
<g opacity="0.5" filter="url(#filter17_f)">
<path d="M933.835 707.537H353.695C348.811 730.736 352.276 796 405.207 871.459C471.372 965.784 779.528 962.121 878.66 887.256C957.966 827.365 948.488 742.489 933.835 707.537Z" fill="url(#paint13_linear)"/>
</g>
<g filter="url(#filter18_f)">
<path d="M462.531 709.132C461.608 811.486 484.746 872.654 511.866 914.124C420.697 863.465 415.504 689.339 456.472 597.447C489.247 523.932 537.446 489.531 557.45 481.52C536.1 498.956 463.685 581.189 462.531 709.132Z" fill="#EC6830"/>
</g>
<g opacity="0.2" filter="url(#filter19_iif)">
<path d="M843.535 718.073C844.507 836.361 765.416 890.843 736.848 938.768C962.852 938.768 948.531 702.667 905.376 596.469C870.852 511.511 788.863 448.201 666.889 461.014C689.378 481.164 842.319 570.213 843.535 718.073Z" fill="#511F0E"/>
</g>
<g filter="url(#filter20_f)">
<path d="M820.786 712.428C821.642 812.639 800.199 872.526 775.067 913.127C881.427 862.204 871.849 691.618 833.883 601.65C803.511 529.675 751.36 497.426 732.823 489.583C752.608 506.654 819.717 587.164 820.786 712.428Z" fill="#67B108" fill-opacity="0.83"/>
</g>
</g>
</g>
<circle cx="512.197" cy="620.922" r="87.8312" fill="url(#paint14_linear)"/>
<path d="M585.511 572.537C572.414 562.037 555.789 555.756 537.697 555.756C495.448 555.756 461.198 590.006 461.198 632.254C461.198 670.314 488.993 701.883 525.392 707.768C521.088 708.417 516.682 708.753 512.197 708.753C463.689 708.753 424.366 669.429 424.366 620.922C424.366 572.414 463.689 533.09 512.197 533.09C542.826 533.09 569.793 548.768 585.511 572.537Z" fill="url(#paint15_linear)"/>
<circle r="87.8312" transform="matrix(-1 0 0 1 764.782 620.923)" fill="url(#paint16_linear)"/>
<path d="M691.468 572.536C704.565 562.036 721.19 555.755 739.283 555.755C781.531 555.755 815.781 590.005 815.781 632.253C815.781 670.313 787.986 701.882 751.587 707.767C755.891 708.416 760.298 708.752 764.782 708.752C813.29 708.752 852.614 669.428 852.614 620.921C852.614 572.413 813.29 533.089 764.782 533.089C734.153 533.089 707.186 548.767 691.468 572.536Z" fill="url(#paint17_linear)"/>
<path d="M617.251 671.16C625.238 655.293 629.231 647.36 635.143 645.888C637.25 645.363 639.454 645.363 641.561 645.888C647.474 647.36 651.467 655.293 659.453 671.16V671.16C666.152 684.47 669.502 691.125 667.714 696.393C667.071 698.288 666.008 700.013 664.605 701.439C660.703 705.404 653.253 705.404 638.352 705.404V705.404C623.452 705.404 616.001 705.404 612.1 701.439C610.696 700.013 609.633 698.288 608.99 696.393C607.203 691.125 610.552 684.47 617.251 671.16V671.16Z" fill="url(#paint18_linear)"/>
<path d="M623.418 681.519C627.465 673.08 629.488 668.861 631.982 667.134C635.902 664.42 641.095 664.42 645.015 667.134C647.509 668.861 649.532 673.08 653.579 681.519V681.519C656.777 688.189 658.376 691.524 658.328 694.235C658.251 698.489 655.82 702.35 652.017 704.259C649.594 705.475 645.895 705.475 638.499 705.475V705.475C631.102 705.475 627.403 705.475 624.98 704.259C621.177 702.35 618.746 698.489 618.67 694.235C618.621 691.524 620.22 688.189 623.418 681.519V681.519Z" fill="url(#paint19_linear)"/>
<path d="M532.956 828.647V758.361H743.583V828.647C762.109 824.515 800.373 804.833 818.566 758.361H859.199C824.217 884.188 718.171 899.619 638.27 899.619C558.369 899.619 452.323 884.188 417.34 758.361H457.973C476.166 804.833 514.43 824.515 532.956 828.647Z" fill="url(#paint20_linear)"/>
<path d="M532.956 828.533H550.854V758.361H532.956V828.533Z" fill="url(#paint21_linear)"/>
<path d="M725.685 758.361V828.533H743.583V758.361H725.685Z" fill="url(#paint22_linear)"/>
<path d="M821.653 758.361C786.395 877.64 704.592 877.64 638.27 877.64C571.948 877.64 480.299 857.397 454.887 758.361H417.34C452.323 884.188 558.369 899.619 638.27 899.619C718.171 899.619 824.217 884.188 859.199 758.361H821.653Z" fill="url(#paint23_linear)"/>
<g opacity="0.2" filter="url(#filter21_f)">
<ellipse cx="768.088" cy="622.604" rx="101.122" ry="97.6941" transform="rotate(-113.587 768.088 622.604)" fill="#8EA826"/>
</g>
<defs>
<filter id="filter0_f" x="64.6641" y="124.664" width="1177.67" height="1189.67" filterUnits="userSpaceOnUse" color-interpolation-filters="sRGB">
<feFlood flood-opacity="0" result="BackgroundImageFix"/>
<feBlend mode="normal" in="SourceGraphic" in2="BackgroundImageFix" result="shape"/>
<feGaussianBlur stdDeviation="87.6679" result="effect1_foregroundBlur"/>
</filter>
<filter id="filter1_f" x="64.5015" y="160.172" width="1141.44" height="1118.64" filterUnits="userSpaceOnUse" color-interpolation-filters="sRGB">
<feFlood flood-opacity="0" result="BackgroundImageFix"/>
<feBlend mode="normal" in="SourceGraphic" in2="BackgroundImageFix" result="shape"/>
<feGaussianBlur stdDeviation="87.6679" result="effect1_foregroundBlur"/>
</filter>
<filter id="filter2_f" x="0.430939" y="-195.569" width="1183.14" height="1351.14" filterUnits="userSpaceOnUse" color-interpolation-filters="sRGB">
<feFlood flood-opacity="0" result="BackgroundImageFix"/>
<feBlend mode="normal" in="SourceGraphic" in2="BackgroundImageFix" result="shape"/>
<feGaussianBlur stdDeviation="83.2845" result="effect1_foregroundBlur"/>
</filter>
<filter id="filter3_f" x="245.088" y="-126.912" width="850.823" height="1115.82" filterUnits="userSpaceOnUse" color-interpolation-filters="sRGB">
<feFlood flood-opacity="0" result="BackgroundImageFix"/>
<feBlend mode="normal" in="SourceGraphic" in2="BackgroundImageFix" result="shape"/>
<feGaussianBlur stdDeviation="18.4558" result="effect1_foregroundBlur"/>
</filter>
<filter id="filter4_f" x="260.559" y="68.5592" width="785.882" height="963.882" filterUnits="userSpaceOnUse" color-interpolation-filters="sRGB">
<feFlood flood-opacity="0" result="BackgroundImageFix"/>
<feBlend mode="normal" in="SourceGraphic" in2="BackgroundImageFix" result="shape"/>
<feGaussianBlur stdDeviation="33.2204" result="effect1_foregroundBlur"/>
</filter>
<filter id="filter5_f" x="309.51" y="840.406" width="658.29" height="213.875" filterUnits="userSpaceOnUse" color-interpolation-filters="sRGB">
<feFlood flood-opacity="0" result="BackgroundImageFix"/>
<feBlend mode="normal" in="SourceGraphic" in2="BackgroundImageFix" result="shape"/>
<feGaussianBlur stdDeviation="29.4762" result="effect1_foregroundBlur"/>
</filter>
<filter id="filter6_i" x="461.532" y="288.309" width="241.115" height="202.354" filterUnits="userSpaceOnUse" color-interpolation-filters="sRGB">
<feFlood flood-opacity="0" result="BackgroundImageFix"/>
<feBlend mode="normal" in="SourceGraphic" in2="BackgroundImageFix" result="shape"/>
<feColorMatrix in="SourceAlpha" type="matrix" values="0 0 0 0 0 0 0 0 0 0 0 0 0 0 0 0 0 0 127 0" result="hardAlpha"/>
<feOffset dx="-15.1102" dy="-11.6063"/>
<feGaussianBlur stdDeviation="21.0627"/>
<feComposite in2="hardAlpha" operator="arithmetic" k2="-1" k3="1"/>
<feColorMatrix type="matrix" values="0 0 0 0 0.68 0 0 0 0 1 0 0 0 0 0 0 0 0 0.31 0"/>
<feBlend mode="normal" in2="shape" result="effect1_innerShadow"/>
</filter>
<filter id="filter7_f" x="640.789" y="344.205" width="52.0521" height="122.713" filterUnits="userSpaceOnUse" color-interpolation-filters="sRGB">
<feFlood flood-opacity="0" result="BackgroundImageFix"/>
<feBlend mode="normal" in="SourceGraphic" in2="BackgroundImageFix" result="shape"/>
<feGaussianBlur stdDeviation="6.63933" result="effect1_foregroundBlur"/>
</filter>
<filter id="filter8_f" x="494.078" y="310.785" width="143.89" height="121.371" filterUnits="userSpaceOnUse" color-interpolation-filters="sRGB">
<feFlood flood-opacity="0" result="BackgroundImageFix"/>
<feBlend mode="normal" in="SourceGraphic" in2="BackgroundImageFix" result="shape"/>
<feGaussianBlur stdDeviation="10.5314" result="effect1_foregroundBlur"/>
</filter>
<filter id="filter9_f" x="479.384" y="295.36" width="244.326" height="216.366" filterUnits="userSpaceOnUse" color-interpolation-filters="sRGB">
<feFlood flood-opacity="0" result="BackgroundImageFix"/>
<feBlend mode="normal" in="SourceGraphic" in2="BackgroundImageFix" result="shape"/>
<feGaussianBlur stdDeviation="10.5314" result="effect1_foregroundBlur"/>
</filter>
<filter id="filter10_f" x="559.744" y="305.742" width="104.977" height="203.049" filterUnits="userSpaceOnUse" color-interpolation-filters="sRGB">
<feFlood flood-opacity="0" result="BackgroundImageFix"/>
<feBlend mode="normal" in="SourceGraphic" in2="BackgroundImageFix" result="shape"/>
<feGaussianBlur stdDeviation="9.61558" result="effect1_foregroundBlur"/>
</filter>
<filter id="filter11_d" x="253.821" y="402.127" width="782.079" height="602.806" filterUnits="userSpaceOnUse" color-interpolation-filters="sRGB">
<feFlood flood-opacity="0" result="BackgroundImageFix"/>
<feColorMatrix in="SourceAlpha" type="matrix" values="0 0 0 0 0 0 0 0 0 0 0 0 0 0 0 0 0 0 127 0"/>
<feOffset dy="1.83154"/>
<feGaussianBlur stdDeviation="33.1967"/>
<feColorMatrix type="matrix" values="0 0 0 0 1 0 0 0 0 0.54 0 0 0 0 0 0 0 0 0.5 0"/>
<feBlend mode="normal" in2="BackgroundImageFix" result="effect1_dropShadow"/>
<feBlend mode="normal" in="SourceGraphic" in2="effect1_dropShadow" result="shape"/>
</filter>
<filter id="filter12_i" x="278.546" y="429.6" width="690.96" height="507.108" filterUnits="userSpaceOnUse" color-interpolation-filters="sRGB">
<feFlood flood-opacity="0" result="BackgroundImageFix"/>
<feBlend mode="normal" in="SourceGraphic" in2="BackgroundImageFix" result="shape"/>
<feColorMatrix in="SourceAlpha" type="matrix" values="0 0 0 0 0 0 0 0 0 0 0 0 0 0 0 0 0 0 127 0" result="hardAlpha"/>
<feOffset dx="-44.4148" dy="-37.0887"/>
<feGaussianBlur stdDeviation="20.8338"/>
<feComposite in2="hardAlpha" operator="arithmetic" k2="-1" k3="1"/>
<feColorMatrix type="matrix" values="0 0 0 0 0.0588235 0 0 0 0 0.847059 0 0 0 0 0.137255 0 0 0 0.81 0"/>
<feBlend mode="normal" in2="shape" result="effect1_innerShadow"/>
</filter>
<filter id="filter13_ddi" x="354.01" y="428.226" width="480.148" height="536.87" filterUnits="userSpaceOnUse" color-interpolation-filters="sRGB">
<feFlood flood-opacity="0" result="BackgroundImageFix"/>
<feColorMatrix in="SourceAlpha" type="matrix" values="0 0 0 0 0 0 0 0 0 0 0 0 0 0 0 0 0 0 127 0"/>
<feOffset dx="-57.6935" dy="-5.03674"/>
<feGaussianBlur stdDeviation="16.7128"/>
<feColorMatrix type="matrix" values="0 0 0 0 1 0 0 0 0 0.54 0 0 0 0 0 0 0 0 1 0"/>
<feBlend mode="normal" in2="BackgroundImageFix" result="effect1_dropShadow"/>
<feColorMatrix in="SourceAlpha" type="matrix" values="0 0 0 0 0 0 0 0 0 0 0 0 0 0 0 0 0 0 127 0"/>
<feOffset dy="1.83154"/>
<feGaussianBlur stdDeviation="0.91577"/>
<feColorMatrix type="matrix" values="0 0 0 0 0 0 0 0 0 0 0 0 0 0 0 0 0 0 0.25 0"/>
<feBlend mode="normal" in2="effect1_dropShadow" result="effect2_dropShadow"/>
<feBlend mode="normal" in="SourceGraphic" in2="effect2_dropShadow" result="shape"/>
<feColorMatrix in="SourceAlpha" type="matrix" values="0 0 0 0 0 0 0 0 0 0 0 0 0 0 0 0 0 0 127 0" result="hardAlpha"/>
<feOffset dx="-38.4623" dy="-15.1102"/>
<feGaussianBlur stdDeviation="11.6063"/>
<feComposite in2="hardAlpha" operator="arithmetic" k2="-1" k3="1"/>
<feColorMatrix type="matrix" values="0 0 0 0 0.933375 0 0 0 0 0.95 0 0 0 0 0.11875 0 0 0 0.75 0"/>
<feBlend mode="normal" in2="shape" result="effect3_innerShadow"/>
</filter>
<filter id="filter14_f" x="344.143" y="429.436" width="567.895" height="282.876" filterUnits="userSpaceOnUse" color-interpolation-filters="sRGB">
<feFlood flood-opacity="0" result="BackgroundImageFix"/>
<feBlend mode="normal" in="SourceGraphic" in2="BackgroundImageFix" result="shape"/>
<feGaussianBlur stdDeviation="30.467" result="effect1_foregroundBlur"/>
</filter>
<filter id="filter15_f" x="454.452" y="417.507" width="232.707" height="350.892" filterUnits="userSpaceOnUse" color-interpolation-filters="sRGB">
<feFlood flood-opacity="0" result="BackgroundImageFix"/>
<feBlend mode="normal" in="SourceGraphic" in2="BackgroundImageFix" result="shape"/>
<feGaussianBlur stdDeviation="30.467" result="effect1_foregroundBlur"/>
</filter>
<filter id="filter16_f" x="231.897" y="650.758" width="385.302" height="405.228" filterUnits="userSpaceOnUse" color-interpolation-filters="sRGB">
<feFlood flood-opacity="0" result="BackgroundImageFix"/>
<feBlend mode="normal" in="SourceGraphic" in2="BackgroundImageFix" result="shape"/>
<feGaussianBlur stdDeviation="11.905" result="effect1_foregroundBlur"/>
</filter>
<filter id="filter17_f" x="283.412" y="638.854" width="729.018" height="372.714" filterUnits="userSpaceOnUse" color-interpolation-filters="sRGB">
<feFlood flood-opacity="0" result="BackgroundImageFix"/>
<feBlend mode="normal" in="SourceGraphic" in2="BackgroundImageFix" result="shape"/>
<feGaussianBlur stdDeviation="34.3414" result="effect1_foregroundBlur"/>
</filter>
<filter id="filter18_f" x="412.719" y="462.289" width="163.962" height="471.066" filterUnits="userSpaceOnUse" color-interpolation-filters="sRGB">
<feFlood flood-opacity="0" result="BackgroundImageFix"/>
<feBlend mode="normal" in="SourceGraphic" in2="BackgroundImageFix" result="shape"/>
<feGaussianBlur stdDeviation="9.61558" result="effect1_foregroundBlur"/>
</filter>
<filter id="filter19_iif" x="645.368" y="437.842" width="307.241" height="522.447" filterUnits="userSpaceOnUse" color-interpolation-filters="sRGB">
<feFlood flood-opacity="0" result="BackgroundImageFix"/>
<feBlend mode="normal" in="SourceGraphic" in2="BackgroundImageFix" result="shape"/>
<feColorMatrix in="SourceAlpha" type="matrix" values="0 0 0 0 0 0 0 0 0 0 0 0 0 0 0 0 0 0 127 0" result="hardAlpha"/>
<feOffset dy="1.83154"/>
<feGaussianBlur stdDeviation="0.91577"/>
<feComposite in2="hardAlpha" operator="arithmetic" k2="-1" k3="1"/>
<feColorMatrix type="matrix" values="0 0 0 0 0.425 0 0 0 0 0.189267 0 0 0 0 0.0566667 0 0 0 0.5 0"/>
<feBlend mode="normal" in2="shape" result="effect1_innerShadow"/>
<feColorMatrix in="SourceAlpha" type="matrix" values="0 0 0 0 0 0 0 0 0 0 0 0 0 0 0 0 0 0 127 0" result="hardAlpha"/>
<feOffset dx="31.1362" dy="9.61558"/>
<feGaussianBlur stdDeviation="0.91577"/>
<feComposite in2="hardAlpha" operator="arithmetic" k2="-1" k3="1"/>
<feColorMatrix type="matrix" values="0 0 0 0 0 0 0 0 0 0 0 0 0 0 0 0 0 0 0.25 0"/>
<feBlend mode="normal" in2="effect1_innerShadow" result="effect2_innerShadow"/>
<feGaussianBlur stdDeviation="10.7603" result="effect3_foregroundBlur"/>
</filter>
<filter id="filter20_f" x="713.592" y="470.352" width="165.87" height="462.006" filterUnits="userSpaceOnUse" color-interpolation-filters="sRGB">
<feFlood flood-opacity="0" result="BackgroundImageFix"/>
<feBlend mode="normal" in="SourceGraphic" in2="BackgroundImageFix" result="shape"/>
<feGaussianBlur stdDeviation="9.61558" result="effect1_foregroundBlur"/>
</filter>
<filter id="filter21_f" x="602.903" y="455.649" width="330.37" height="333.91" filterUnits="userSpaceOnUse" color-interpolation-filters="sRGB">
<feFlood flood-opacity="0" result="BackgroundImageFix"/>
<feBlend mode="normal" in="SourceGraphic" in2="BackgroundImageFix" result="shape"/>
<feGaussianBlur stdDeviation="17.5949" result="effect1_foregroundBlur"/>
</filter>
<linearGradient id="paint0_linear" x1="653.5" y1="300" x2="653.5" y2="1139" gradientUnits="userSpaceOnUse">
<stop stop-color="#50FF76" stop-opacity="0.38"/>
<stop offset="1" stop-color="#50FFA0" stop-opacity="0"/>
</linearGradient>
<linearGradient id="paint1_linear" x1="635.22" y1="335.508" x2="635.22" y2="696.167" gradientUnits="userSpaceOnUse">
<stop stop-color="#FFFACE"/>
<stop offset="1" stop-color="white" stop-opacity="0"/>
</linearGradient>
<linearGradient id="paint2_linear" x1="593.735" y1="68.1531" x2="593.735" y2="1083.94" gradientUnits="userSpaceOnUse">
<stop stop-color="#A6FFEA" stop-opacity="0.95"/>
<stop offset="1" stop-color="#F6EB4E" stop-opacity="0"/>
</linearGradient>
<radialGradient id="paint3_radial" cx="0" cy="0" r="1" gradientUnits="userSpaceOnUse" gradientTransform="translate(772.386 335.03) rotate(177.945) scale(270.533 524.018)">
<stop stop-color="#EDFFA4" stop-opacity="0.3"/>
<stop offset="1" stop-color="#B2FF50" stop-opacity="0.04"/>
</radialGradient>
<linearGradient id="paint4_linear" x1="370.268" y1="332.387" x2="786.983" y2="756.033" gradientUnits="userSpaceOnUse">
<stop stop-color="#FEFFD2" stop-opacity="0.31"/>
<stop offset="1" stop-color="#B2FF50" stop-opacity="0.1"/>
</linearGradient>
<linearGradient id="paint5_linear" x1="638.655" y1="899.359" x2="638.655" y2="995.329" gradientUnits="userSpaceOnUse">
<stop/>
<stop offset="1" stop-color="#151433" stop-opacity="0.87"/>
<stop offset="1" stop-color="#251F27" stop-opacity="0.87"/>
</linearGradient>
<radialGradient id="paint6_radial" cx="0" cy="0" r="1" gradientUnits="userSpaceOnUse" gradientTransform="translate(512.418 292.533) rotate(70.119) scale(216.736 186.562)">
<stop stop-color="#E8F360"/>
<stop offset="0.420971" stop-color="#F7B34E" stop-opacity="0.990923"/>
<stop offset="0.829897" stop-color="#FFA843"/>
<stop offset="1" stop-color="#89F235"/>
</radialGradient>
<linearGradient id="paint7_linear" x1="566.022" y1="331.848" x2="566.022" y2="411.093" gradientUnits="userSpaceOnUse">
<stop stop-color="#9E4722"/>
<stop offset="1" stop-color="#BB391C" stop-opacity="0.87"/>
</linearGradient>
<linearGradient id="paint8_linear" x1="601.547" y1="316.422" x2="601.547" y2="490.663" gradientUnits="userSpaceOnUse">
<stop stop-color="#9E4722"/>
<stop offset="1" stop-color="#BB391C" stop-opacity="0.87"/>
</linearGradient>
<radialGradient id="paint9_radial" cx="0" cy="0" r="1" gradientUnits="userSpaceOnUse" gradientTransform="translate(638.543 533.182) rotate(64.8675) scale(445.241 531.135)">
<stop stop-color="#F1A42F"/>
<stop offset="0.420971" stop-color="#FCDB69" stop-opacity="0.990923"/>
<stop offset="0.829897" stop-color="#F8B147" stop-opacity="0.77"/>
<stop offset="1" stop-color="#EEAF4F"/>
</radialGradient>
<radialGradient id="paint10_radial" cx="0" cy="0" r="1" gradientUnits="userSpaceOnUse" gradientTransform="translate(638.728 533.182) rotate(90.8281) scale(417.585 249.974)">
<stop stop-color="#F38B2C"/>
<stop offset="0.420971" stop-color="#FFA681" stop-opacity="0.990923"/>
<stop offset="0.829897" stop-color="#F79A10" stop-opacity="0.77"/>
</radialGradient>
<linearGradient id="paint11_linear" x1="434.603" y1="524.516" x2="478.965" y2="678.506" gradientUnits="userSpaceOnUse">
<stop stop-color="#FFEB37" stop-opacity="0.71"/>
<stop offset="1" stop-color="#FF7C02" stop-opacity="0.7"/>
</linearGradient>
<linearGradient id="paint12_linear" x1="466.543" y1="568.931" x2="488.777" y2="649.189" gradientUnits="userSpaceOnUse">
<stop stop-color="white"/>
<stop offset="1" stop-color="#FFFFF8" stop-opacity="0.7"/>
</linearGradient>
<linearGradient id="paint13_linear" x1="647.921" y1="707.537" x2="647.921" y2="942.885" gradientUnits="userSpaceOnUse">
<stop stop-color="#F8A120"/>
<stop offset="1" stop-color="#A5BB1C" stop-opacity="0.87"/>
</linearGradient>
<linearGradient id="paint14_linear" x1="512.197" y1="533.09" x2="512.197" y2="708.753" gradientUnits="userSpaceOnUse">
<stop stop-color="#27613E"/>
<stop offset="1" stop-color="#1B213F"/>
</linearGradient>
<linearGradient id="paint15_linear" x1="544.404" y1="548.65" x2="519.908" y2="719.899" gradientUnits="userSpaceOnUse">
<stop stop-color="#AF6E31"/>
<stop offset="0.558371" stop-color="#E45314" stop-opacity="0.990923"/>
<stop offset="1" stop-color="#FFC700"/>
</linearGradient>
<linearGradient id="paint16_linear" x1="87.8312" y1="0" x2="87.8312" y2="175.662" gradientUnits="userSpaceOnUse">
<stop stop-color="#27613E"/>
<stop offset="1" stop-color="#1B213F"/>
</linearGradient>
<linearGradient id="paint17_linear" x1="811.507" y1="548.649" x2="787.01" y2="719.898" gradientUnits="userSpaceOnUse">
<stop stop-color="#9C500A"/>
<stop offset="0.558371" stop-color="#E45314" stop-opacity="0.990923"/>
<stop offset="1" stop-color="#FFC700"/>
</linearGradient>
<linearGradient id="paint18_linear" x1="643.45" y1="673.192" x2="651.053" y2="723.9" gradientUnits="userSpaceOnUse">
<stop stop-color="#9C500A"/>
<stop offset="1" stop-color="#FF2E00"/>
</linearGradient>
<linearGradient id="paint19_linear" x1="638.499" y1="650.071" x2="638.499" y2="705.475" gradientUnits="userSpaceOnUse">
<stop stop-color="#1D2B3F"/>
<stop offset="1" stop-color="#1A4A33"/>
</linearGradient>
<linearGradient id="paint20_linear" x1="779.657" y1="858.018" x2="638.27" y2="899.619" gradientUnits="userSpaceOnUse">
<stop stop-color="#27613E"/>
<stop offset="1" stop-color="#1B213F"/>
</linearGradient>
<linearGradient id="paint21_linear" x1="766.369" y1="746.545" x2="752.712" y2="914.548" gradientUnits="userSpaceOnUse">
<stop stop-color="#225321"/>
<stop offset="0.558371" stop-color="#E46C14" stop-opacity="0.990923"/>
<stop offset="1" stop-color="#FFC700"/>
</linearGradient>
<linearGradient id="paint22_linear" x1="766.369" y1="746.545" x2="752.712" y2="914.548" gradientUnits="userSpaceOnUse">
<stop stop-color="#225321"/>
<stop offset="0.558371" stop-color="#E46C14" stop-opacity="0.990923"/>
<stop offset="1" stop-color="#FFC700"/>
</linearGradient>
<linearGradient id="paint23_linear" x1="766.369" y1="746.545" x2="752.712" y2="914.548" gradientUnits="userSpaceOnUse">
<stop stop-color="#225321"/>
<stop offset="0.558371" stop-color="#E46C14" stop-opacity="0.990923"/>
<stop offset="1" stop-color="#FFC700"/>
</linearGradient>
</defs>
</svg>
